<svg version="1.1" id="Layer_1" xmlns="http://www.w3.org/2000/svg" xmlns:xlink="http://www.w3.org/1999/xlink" x="0px" y="0px"
	 width="100%" viewBox="0 0 1024 1024" enable-background="new 0 0 1024 1024" xml:space="preserve">
<path fill="#000000" opacity="1.000000" stroke="none" 
	d="
M633.000000,608.287964 
	C539.005127,608.283447 445.507843,607.877380 352.016510,608.448242 
	C307.502686,608.720032 269.361115,576.412842 264.482239,529.959717 
	C259.843903,485.796417 287.258881,445.373840 329.323517,435.401489 
	C336.624695,433.670563 344.046509,432.910065 351.583893,432.915558 
	C463.910889,432.997040 576.237915,433.025513 688.564941,433.047943 
	C702.631836,433.050751 716.518677,434.046509 729.664551,439.703156 
	C754.386841,450.341156 770.080872,468.891571 777.725037,494.503052 
	C778.099854,495.758820 778.675842,497.033966 776.995361,498.997742 
	C768.492004,491.431610 757.150330,487.480194 749.704956,478.637238 
	C734.923889,461.081787 716.781311,452.143707 693.563477,452.187012 
	C578.736877,452.401062 463.909332,452.383942 349.082886,452.120544 
	C313.859009,452.039734 285.294373,479.695618 283.241821,515.441528 
	C281.709900,542.120483 291.447052,563.700500 313.974762,578.699646 
	C324.143921,585.470337 335.539307,588.907837 347.919891,588.898560 
	C465.413300,588.810669 582.907227,588.945618 700.399536,588.556152 
	C721.546326,588.486084 738.336670,578.472168 750.251404,560.836121 
	C751.871826,558.437561 753.614319,556.432312 756.046387,554.816406 
	C762.287415,550.669678 768.371460,546.286987 774.533142,542.020203 
	C775.718201,541.199524 776.774719,539.915405 778.516541,540.601196 
	C779.696777,542.055481 778.820557,543.466431 778.426331,544.860352 
	C769.377808,576.853638 749.171265,597.591492 716.759766,606.072693 
	C710.754333,607.644165 704.715759,608.329773 698.494202,608.294922 
	C676.830139,608.173584 655.164856,608.272461 633.000000,608.287964 
z"/>
<path fill="#000000" opacity="1.000000" stroke="none" 
	d="
M776.943542,508.018250 
	C780.643555,510.606262 784.092407,512.932434 787.445984,515.388489 
	C791.143738,518.096680 791.425049,520.830627 787.863647,523.381104 
	C772.719299,534.226868 757.591797,545.107971 741.795166,555.001221 
	C738.703064,556.937866 736.424072,555.666016 735.871094,551.997986 
	C735.723572,551.019653 735.799622,550.005249 735.799683,549.007385 
	C735.801086,529.040588 735.794922,509.073700 735.826538,489.106934 
	C735.830139,486.835419 735.230286,484.136444 737.742004,482.813660 
	C740.317261,481.457428 742.051025,483.683472 743.906433,484.975159 
	C754.827820,492.578369 765.737000,500.198914 776.943542,508.018250 
z"/>
<path fill="#000000" opacity="1.000000" stroke="none" 
	d="
M448.325195,507.603333 
	C447.230652,511.334503 447.340302,514.151489 448.892487,517.709229 
	C453.142059,527.449829 448.338928,534.125183 437.736633,534.263000 
	C430.409912,534.358276 423.077179,534.146790 415.754852,534.350586 
	C412.000488,534.455078 410.769836,532.920288 410.824615,529.341003 
	C410.972351,519.683533 411.010284,510.021515 410.882385,500.364075 
	C410.832397,496.589417 412.133789,494.844421 416.075653,494.941650 
	C423.066467,495.114166 430.074951,494.785553 437.055267,495.111572 
	C446.135681,495.535675 448.298370,498.057526 448.325195,507.603333 
M439.567871,523.043762 
	C440.147461,520.731750 439.476135,518.745850 437.026917,518.566528 
	C432.564667,518.239929 428.064667,518.360596 423.581909,518.415283 
	C421.635345,518.439026 421.191956,519.917969 421.180267,521.553711 
	C421.168396,523.220581 421.013092,525.484985 423.216003,525.429199 
	C428.568268,525.293762 434.188141,527.144226 439.567871,523.043762 
M438.424866,505.839752 
	C433.304840,502.422089 427.740601,504.137787 422.345520,504.630676 
	C420.931519,504.759888 420.961884,506.675751 420.972321,508.002533 
	C420.981720,509.197144 421.711914,509.852173 422.834015,509.851990 
	C427.276428,509.851257 431.721771,509.858887 436.159760,509.693726 
	C437.925110,509.628021 438.689270,508.354553 438.424866,505.839752 
z"/>
<path fill="#000000" opacity="1.000000" stroke="none" 
	d="
M553.160522,496.447632 
	C559.262573,504.113281 565.080505,511.510651 571.501160,519.674316 
	C573.419617,512.576843 572.613037,506.281311 572.452698,500.105377 
	C572.347778,496.063293 573.733643,494.781769 577.575378,494.886017 
	C580.956238,494.977783 582.326904,496.274658 582.284363,499.697815 
	C582.160522,509.684082 582.173706,519.673401 582.268066,529.660217 
	C582.298584,532.894653 580.848633,533.909302 577.778137,534.174744 
	C572.503418,534.630920 568.685242,533.314270 565.651855,528.466858 
	C561.444580,521.743469 556.398560,515.544922 551.711609,509.121643 
	C551.245117,509.219452 550.778564,509.317261 550.312073,509.415100 
	C550.312073,515.921875 550.085999,522.439270 550.390076,528.931824 
	C550.599121,533.394897 548.499329,534.311584 544.674072,534.154724 
	C541.648315,534.030579 540.632751,532.695190 540.655579,529.810974 
	C540.735962,519.657410 540.764099,509.501740 540.634888,499.349152 
	C540.592590,496.032227 542.091614,494.835052 545.138306,494.963257 
	C547.763611,495.073669 550.503235,494.462799 553.160522,496.447632 
z"/>
<path fill="#000000" opacity="1.000000" stroke="none" 
	d="
M486.107788,533.564514 
	C477.840729,535.492310 469.889954,535.368225 461.932800,534.298218 
	C457.959015,533.763916 455.094543,531.732361 454.189972,527.615906 
	C453.741608,525.575562 452.574860,522.820496 454.938751,521.778198 
	C457.396667,520.694397 461.273285,520.380615 462.763306,522.694336 
	C464.876007,525.975037 467.504242,525.833740 470.462646,525.866211 
	C472.958344,525.893616 475.455688,525.898804 477.950592,525.840454 
	C480.156799,525.788940 482.567871,525.781982 482.622742,522.686218 
	C482.682800,519.300415 480.116150,519.284180 477.720978,519.206604 
	C472.905426,519.050598 468.084625,519.237244 463.292389,518.384216 
	C457.544830,517.361084 455.184814,515.021545 454.591400,509.281982 
	C453.826813,501.886444 455.690247,497.163605 461.092804,495.813843 
	C469.211853,493.785370 477.548401,494.026917 485.759766,495.772308 
	C488.005768,496.249725 489.512177,497.911713 490.230713,500.101196 
	C490.981903,502.390167 492.702759,505.319366 489.888672,506.780762 
	C487.590820,507.974060 484.480103,508.204987 482.057800,505.779572 
	C479.776855,503.495636 468.881226,502.301117 466.035309,503.801239 
	C464.673157,504.519287 464.191162,505.635071 464.331024,507.094238 
	C464.506439,508.924622 465.721588,509.693756 467.362823,509.803955 
	C472.008423,510.115906 476.661316,510.318176 481.307739,510.619568 
	C487.998138,511.053497 490.624451,512.983948 491.916565,518.320679 
	C493.603882,525.289795 491.930450,529.930176 486.107788,533.564514 
z"/>
<path fill="#000000" opacity="1.000000" stroke="none" 
	d="
M344.728516,519.159058 
	C339.796631,518.847656 335.293793,518.762024 330.854767,518.185181 
	C325.972260,517.550659 323.176483,514.593445 322.720032,509.562744 
	C322.044495,502.116882 323.976685,497.330475 329.165619,495.973846 
	C337.142120,493.888397 345.302429,494.162933 353.367065,495.788818 
	C355.988007,496.317261 357.688568,498.151917 358.528259,500.730896 
	C359.198883,502.790649 360.349640,505.447113 358.236694,506.656830 
	C355.901978,507.993500 352.695770,508.344910 350.389771,506.021698 
	C345.575958,501.171997 339.822998,503.783905 334.434387,503.910858 
	C332.857178,503.948029 332.153259,505.736328 332.419861,507.417023 
	C332.710907,509.251953 334.130249,509.754974 335.716431,509.850189 
	C340.531616,510.139221 345.348907,510.396423 350.167023,510.632294 
	C357.014374,510.967438 359.898804,513.523193 360.338379,519.696289 
	C361.029877,529.407288 358.879578,533.115845 351.591217,534.286255 
	C344.485107,535.427429 337.340881,535.437500 330.224579,534.284363 
	C326.769104,533.724426 323.705017,532.409790 322.814789,528.603333 
	C322.316589,526.473206 320.506866,523.443237 323.132233,522.288330 
	C325.719788,521.150085 329.446655,520.188477 331.638489,523.611450 
	C333.227600,526.093079 335.508911,525.832764 337.797089,525.884827 
	C340.291962,525.941589 342.791870,525.975647 345.284363,525.881165 
	C347.721558,525.788879 350.803955,526.193420 350.757385,522.481018 
	C350.710815,518.766113 347.592468,519.374329 344.728516,519.159058 
z"/>
<path fill="#000000" opacity="1.000000" stroke="none" 
	d="
M612.859375,494.756134 
	C615.324036,494.900696 617.356323,494.825867 619.288696,495.229553 
	C625.950134,496.621155 627.887085,499.963959 627.083374,508.749542 
	C623.375671,509.365601 619.419495,511.278290 617.373352,505.755035 
	C616.999207,504.744781 615.945007,504.397827 614.907471,504.324341 
	C613.746216,504.242126 612.579102,504.205231 611.414734,504.208496 
	C595.375977,504.253510 597.321289,502.501190 597.396057,520.037720 
	C597.408569,522.969727 599.063477,524.716797 602.066772,524.793091 
	C606.060303,524.894531 610.057861,524.882812 614.053162,524.850342 
	C615.624756,524.837524 617.136536,524.392212 617.583496,522.651672 
	C618.886597,517.576660 623.002441,518.386475 626.031006,519.437500 
	C629.514282,520.646362 628.114319,524.164917 627.512817,526.856262 
	C626.395691,531.854980 622.793213,534.028625 618.059753,534.183716 
	C611.239929,534.407349 604.399170,534.452637 597.582703,534.184204 
	C591.561523,533.947021 587.985779,530.347229 587.745667,524.347534 
	C587.492737,518.030396 587.496338,511.685730 587.770325,505.369659 
	C588.051453,498.887756 592.086121,495.303040 599.395691,494.850250 
	C603.709595,494.583008 608.051758,494.772156 612.859375,494.756134 
z"/>
<path fill="#000000" opacity="1.000000" stroke="none" 
	d="
M365.588562,517.943787 
	C365.595795,511.460602 365.738190,505.464417 365.560394,499.477783 
	C365.450928,495.793152 367.328552,494.976501 370.486755,494.962311 
	C373.699280,494.947937 375.461853,495.888702 375.367340,499.521759 
	C375.198578,506.008636 375.429016,512.505188 375.311890,518.994446 
	C375.227936,523.643799 377.396210,525.531738 381.943787,525.698975 
	C394.369781,526.156128 394.816742,525.810547 394.809357,513.309814 
	C394.806580,508.649231 394.916687,503.985626 394.780670,499.329071 
	C394.672211,495.616150 396.735809,494.976440 399.847198,494.921539 
	C403.169556,494.863007 404.751007,495.934235 404.598877,499.500397 
	C404.244720,507.802185 405.619446,516.117920 404.477966,524.422302 
	C403.613556,530.710999 400.304169,533.990356 394.005615,534.273193 
	C388.689331,534.511902 383.354858,534.432190 378.029877,534.370483 
	C369.094727,534.266968 365.760895,530.889160 365.594360,521.930237 
	C365.572723,520.765442 365.589539,519.599976 365.588562,517.943787 
z"/>
<path fill="#000000" opacity="1.000000" stroke="none" 
	d="
M507.138611,498.811096 
	C509.823120,502.836212 512.306763,506.546143 515.117126,510.744232 
	C519.277466,507.525635 521.062500,503.112274 523.843567,499.545135 
	C527.653137,494.658630 530.884888,493.682037 537.889526,496.180573 
	C534.738953,500.579803 531.774414,504.900757 528.621460,509.079529 
	C523.805176,515.462769 518.428345,521.514343 520.245422,530.552246 
	C520.812744,533.374023 518.768982,534.375732 516.214417,534.174988 
	C514.065186,534.005981 510.389862,534.907959 510.907257,531.498047 
	C512.760559,519.283752 504.036896,511.974335 498.610504,503.102905 
	C497.243896,500.868683 495.160126,499.035492 494.611633,496.320801 
	C499.791870,493.967316 503.532959,494.645935 507.138611,498.811096 
z"/>
<path fill="#000000" opacity="1.000000" stroke="none" 
	d="
M601.822144,550.672485 
	C606.696167,552.268860 609.382446,559.997192 606.600586,563.203186 
	C605.252930,564.756409 596.576355,564.416077 594.418274,562.683777 
	C593.931519,562.293091 593.588501,561.723450 593.078308,561.115967 
	C589.839050,565.520813 585.386963,565.190430 581.450256,563.444580 
	C577.458984,561.674683 580.370789,557.254639 579.425903,554.110779 
	C578.871399,552.266174 581.349365,550.787598 583.551697,550.732117 
	C586.705750,550.652649 590.282349,549.841370 591.744141,553.991882 
	C589.773010,556.653259 587.566101,554.073914 584.970947,554.924744 
	C587.548035,556.045410 590.020630,555.940735 591.909363,557.409973 
	C593.519531,558.662537 594.936462,556.869934 594.749817,556.011292 
	C593.343506,549.540466 598.155762,551.128296 601.822144,550.672485 
z"/>
<path fill="#000000" opacity="1.000000" stroke="none" 
	d="
M621.765259,555.045410 
	C620.206543,554.500427 618.803711,554.098694 619.085205,552.317139 
	C619.328552,550.777710 620.695984,550.711609 621.815308,550.768799 
	C624.713135,550.917114 628.597351,549.181274 630.254028,551.873718 
	C632.214539,555.060059 627.133301,556.296692 626.491028,559.134583 
	C627.102844,560.184448 628.284973,559.748230 629.141541,560.156067 
	C630.106995,560.615845 630.885986,561.216492 630.741028,562.387085 
	C630.593140,563.581116 629.638062,564.065796 628.606934,564.072144 
	C623.476257,564.103821 618.345154,564.054321 613.214172,564.026062 
	C613.053894,564.025146 612.886414,563.961975 612.735046,563.897766 
	C610.373047,562.896545 609.882629,560.865234 609.782410,558.591309 
	C609.623230,554.980408 606.211243,551.085632 610.700806,547.892456 
	C611.958679,546.997803 613.644958,546.918762 614.077393,548.390320 
	C614.703674,550.521790 619.359680,551.169250 616.533691,554.332642 
	C615.247742,555.772095 613.714417,556.816711 614.783264,558.898560 
	C615.360352,560.022827 616.782898,560.586243 617.794189,560.084290 
	C619.815430,559.081055 622.454346,558.347473 621.765259,555.045410 
z"/>
<path fill="#000000" opacity="1.000000" stroke="none" 
	d="
M556.378357,561.042114 
	C552.874573,565.797546 548.404053,563.747070 544.277832,563.498352 
	C543.903503,563.475830 543.313477,562.906372 543.247437,562.518677 
	C542.382874,557.437805 542.452881,552.336609 543.246216,547.259216 
	C543.373108,546.447510 544.297546,545.991516 545.197998,546.033875 
	C547.817322,546.156982 546.782288,549.000183 548.109314,550.060120 
	C556.349243,550.774292 558.333679,553.276550 556.378357,561.042114 
M552.414001,556.140259 
	C551.092285,554.136414 549.539246,553.910889 548.015808,555.801575 
	C547.067505,556.978455 547.052551,558.557739 548.514038,559.219421 
	C550.724304,560.220093 552.462524,559.687012 552.414001,556.140259 
z"/>
<path fill="#000000" opacity="1.000000" stroke="none" 
	d="
M663.939331,550.813293 
	C668.079773,554.259277 669.226135,558.692871 667.117615,561.797241 
	C665.419128,564.297913 659.081421,565.396729 656.151978,563.413025 
	C652.856689,561.181641 652.005554,557.811707 653.459656,554.233826 
	C655.401306,549.456055 659.491760,549.880371 663.939331,550.813293 
M660.432678,554.640808 
	C657.995728,555.277527 656.960754,556.732361 658.530273,558.931274 
	C659.526550,560.327148 661.295227,560.298279 662.406006,559.017151 
	C664.078064,557.088623 662.881897,555.744812 660.432678,554.640808 
z"/>
<path fill="#000000" opacity="1.000000" stroke="none" 
	d="
M562.957703,553.732666 
	C563.543457,554.858093 563.988647,555.696350 564.470642,556.603943 
	C567.071472,554.846741 566.756531,549.578918 572.632507,551.500854 
	C570.164246,556.758301 568.036072,561.856262 565.386841,566.667358 
	C564.262512,568.709290 561.588806,569.099548 559.686096,567.634094 
	C557.867188,566.233154 559.668762,565.187622 560.764160,564.203308 
	C561.956482,563.131897 561.659241,561.819824 561.063354,560.553345 
	C560.288513,558.906433 559.388000,557.311096 558.724243,555.621826 
	C558.109131,554.056580 556.235291,552.102356 558.421387,550.806885 
	C560.774841,549.412231 561.898438,551.609924 562.957703,553.732666 
z"/>
<path fill="#000000" opacity="1.000000" stroke="none" 
	d="
M650.784729,558.643982 
	C652.845215,560.016602 652.217590,561.306091 651.119629,562.518921 
	C648.989990,564.871399 642.317017,564.978149 640.009033,562.733643 
	C637.723511,560.510986 637.800476,554.458008 640.143616,552.152405 
	C642.275452,550.054688 648.643616,549.987122 650.849487,552.029541 
	C651.607056,552.730957 652.259827,553.497742 651.855896,554.600159 
	C651.367676,555.932617 650.222473,556.210571 649.011169,555.946716 
	C648.054626,555.738342 647.178223,555.184631 646.229980,554.909119 
	C645.172119,554.601624 644.251160,554.972229 643.660645,555.903687 
	C643.091125,556.802002 643.046631,557.798279 643.577087,558.730896 
	C644.154297,559.745667 645.178711,559.895813 646.177185,559.688293 
	C647.610901,559.390320 649.010803,558.929016 650.784729,558.643982 
z"/>
<path fill="#000000" opacity="1.000000" stroke="none" 
	d="
M682.528931,557.451538 
	C682.795776,550.650208 683.356628,550.154419 690.447632,550.373657 
	C694.893799,550.511108 696.543701,553.096680 696.322449,557.265137 
	C696.260986,558.423828 696.329773,559.589417 696.269104,560.748230 
	C696.198853,562.089111 696.144958,563.586609 694.306641,563.631165 
	C692.612488,563.672180 692.236389,562.356750 691.923096,560.977295 
	C691.421570,558.769470 693.076660,554.939941 689.562134,554.871216 
	C686.067871,554.802917 687.453125,558.644592 686.968567,560.867859 
	C686.639465,562.378052 686.410461,563.991028 684.358154,563.781494 
	C682.712036,563.613403 682.314758,562.247803 682.275391,560.849609 
	C682.247681,559.861938 682.422974,558.868469 682.528931,557.451538 
z"/>
<path fill="#000000" opacity="1.000000" stroke="none" 
	d="
M680.386475,556.222473 
	C679.729980,559.084534 682.117676,563.481506 677.958923,563.484680 
	C674.311951,563.487488 676.062866,559.281860 675.832947,556.915894 
	C675.579224,554.304993 675.969177,551.638062 675.917908,548.998596 
	C675.887634,547.441040 676.271606,546.278015 677.946594,546.208801 
	C679.632996,546.139221 680.153015,547.259460 680.155334,548.832336 
	C680.158813,551.147522 680.299072,553.462646 680.386475,556.222473 
z"/>
<path fill="#000000" opacity="1.000000" stroke="none" 
	d="
M636.770020,560.617310 
	C637.242310,563.007080 636.392578,564.181274 634.272705,563.930115 
	C632.544556,563.725342 632.225403,562.253052 632.721741,560.961426 
	C633.536804,558.840149 635.057861,559.081604 636.770020,560.617310 
z"/>
</svg>